<svg width="673" height="146" viewBox="0 0 673 146" fill="none" xmlns="http://www.w3.org/2000/svg">
<path d="M80.1759 125.162C80.1759 128.347 78.4502 129.94 75.2644 129.94H67.2999C64.1141 129.94 62.654 128.48 62.654 125.427V122.109C44.3356 125.56 27.6102 127.418 12.7431 127.418C9.02635 127.418 7.16797 125.56 7.16797 121.844V19.9091C7.16797 16.7237 8.76087 14.9982 12.0794 14.9982H51.7692C55.2204 14.9982 56.9461 16.7237 56.9461 20.1746V26.8109C56.9461 30.1291 55.2204 31.7219 52.0346 31.7219H24.8226V45.1273H48.8488C51.7692 45.1273 53.3621 46.4546 53.3621 49.1091V56.94C53.3621 60.2582 51.6364 61.8509 48.1851 61.8509H24.8226V110.562C35.9729 110.429 48.5834 108.571 62.654 105.12V90.52H48.4506C45.1321 90.52 43.5392 88.9273 43.5392 85.4764V77.1146C43.5392 73.9291 45.1321 72.2037 48.5834 72.2037H62.654V16.9891C62.654 14.2019 63.9814 12.7418 66.9017 12.7418H76.0609C78.7157 12.7418 80.1759 14.2019 80.1759 16.9891V125.162ZM85.22 16.9891C85.22 14.2019 86.5475 12.7418 89.4678 12.7418H97.9632C101.149 12.7418 102.742 14.2019 102.742 16.9891V125.162C102.742 128.347 101.016 129.94 97.8305 129.94H89.866C86.6802 129.94 85.22 128.48 85.22 125.427V16.9891ZM261.816 124.1C261.816 127.816 259.825 129.542 255.975 129.542H248.409C244.825 129.542 243.099 127.949 243.099 124.498V18.5819C243.099 14.9982 244.825 13.14 248.541 13.14H256.506C259.957 13.14 261.816 14.9982 261.816 18.4491V124.1ZM313.301 26.9437C351.53 20.0419 368.92 44.0655 365.336 98.7491C365.203 101.669 363.61 102.996 360.557 102.996H349.407C346.486 102.996 345.159 101.536 345.69 98.6164C349.407 57.7364 338.256 40.2164 312.106 45.7909C309.85 68.8855 305.071 86.6709 297.77 99.4128C296.443 101.802 293.921 102.996 290.469 102.996H280.779C278.522 102.996 277.195 102.465 276.93 101.271C276.664 100.076 276.797 98.7491 277.593 97.2891C288.345 79.2382 293.788 53.2237 294.053 19.2455C294.053 16.4582 295.381 14.9982 298.168 14.9982H309.186C311.973 14.9982 313.434 16.5909 313.566 19.6437L313.301 26.9437ZM360.69 110.031C364.406 110.031 366.265 111.624 366.265 114.809V123.304C366.265 126.224 364.805 127.684 362.017 127.684H281.708C278.124 127.684 276.399 125.958 276.399 122.242V115.075C276.399 111.756 277.992 110.031 281.443 110.031H360.69ZM465.591 125.958C465.591 128.613 463.998 129.807 461.078 129.807H450.459C447.804 129.807 446.609 128.613 446.609 126.224V118.127C427.229 124.365 406.654 127.418 384.619 127.418C381.566 127.418 380.106 126.091 380.106 123.304V19.6437C380.106 16.5909 381.699 14.9982 384.884 14.9982H433.733C436.521 14.9982 437.981 16.4582 437.981 19.1128V27.4746C437.981 30.66 436.388 32.2528 433.335 32.2528H398.955V47.6491H426.167C430.017 47.6491 432.008 49.3746 432.008 52.8255V59.7273C432.008 63.1782 430.149 64.7709 426.565 64.7709H398.955V109.898C417.273 108.836 433.202 105.916 446.742 101.005V16.8564C446.742 14.0691 448.069 12.6091 450.724 12.6091H461.609C464.264 12.6091 465.591 13.9364 465.591 16.5909V125.958ZM523.208 11.5472C552.278 11.5472 566.88 25.4837 566.88 53.6219C566.614 78.0437 554.8 91.4491 531.305 93.8382V109.765H562.234C565.287 109.765 566.88 111.491 566.88 114.942V122.905C566.88 125.825 565.42 127.418 562.499 127.418H485.111C481.527 127.418 479.801 125.693 479.801 121.976V114.942C479.801 111.491 481.66 109.765 485.376 109.765H512.588V93.7055C490.819 90.3873 479.801 76.9819 479.669 53.6219C479.669 25.6164 494.27 11.5472 523.208 11.5472ZM523.075 78.3091C539.8 78.3091 548.296 70.08 548.827 53.6219C548.827 36.2346 540.199 27.6073 523.208 27.6073C506.35 27.6073 497.854 36.3673 497.721 53.6219C497.721 70.3455 506.217 78.5746 523.075 78.3091ZM664.669 125.162C664.669 128.347 662.944 129.94 659.758 129.94H650.599C647.413 129.94 645.82 128.48 645.82 125.427V122.109C633.475 123.967 622.457 125.295 612.634 126.091C602.812 127.02 594.051 127.418 586.617 127.418C582.9 127.418 581.042 125.56 581.042 121.844V19.9091C581.042 16.7237 582.635 14.9982 585.953 14.9982H630.422C633.873 14.9982 635.599 16.7237 635.599 20.1746V26.8109C635.599 30.1291 633.873 31.7219 630.555 31.7219H598.697V110.562C614.493 110.429 630.156 108.571 645.82 105.12V63.1782H632.546C629.493 63.1782 628.032 61.5855 628.032 58.4V48.8437C628.032 46.1891 629.493 44.8618 632.546 44.8618H645.82V16.9891C645.82 14.2019 647.28 12.7418 650.2 12.7418H659.89C663.076 12.7418 664.669 14.2019 664.669 16.9891V125.162Z" fill="white"/>
<path d="M174.555 123.104C200.123 123.104 220.849 102.38 220.849 76.8159C220.849 51.2517 200.123 30.5272 174.555 30.5272C148.988 30.5272 128.262 51.2517 128.262 76.8159C128.262 102.38 148.988 123.104 174.555 123.104Z" stroke="#FFC700" stroke-width="7" stroke-linejoin="round"/>
<path d="M159.124 20.241C169.412 20.241 173.913 27.9557 174.555 30.5273C174.769 27.9557 176.099 22.2982 179.699 20.241M192.558 94.8171C192.558 94.8171 187.415 105.103 174.555 105.103C161.695 105.103 156.553 94.8171 156.553 94.8171" stroke="#FFC700" stroke-width="7" stroke-linecap="round" stroke-linejoin="round"/>
<path d="M192.558 94.8171C192.558 94.8171 196.416 84.5307 189.986 84.5307C183.556 84.5307 182.27 102.532 182.27 102.532M197.703 63.958H187.415M156.553 58.8148V69.1012M123.118 71.6728V81.9591M225.993 71.6728V81.9591" stroke="#FFC700" stroke-width="7" stroke-linecap="round" stroke-linejoin="round"/>
</svg>
